<svg width="320" height="59" viewBox="0 0 320 59" fill="none" xmlns="http://www.w3.org/2000/svg">
<g clip-path="url(#clip0_8570_347)">
<path d="M58.48 30.24C58.48 46.388 45.388 59.48 29.24 59.48C13.09 59.48 0 46.388 0 30.24C0 14.09 13.091 1 29.24 1C45.388 1 58.48 14.091 58.48 30.24Z" fill="#2d76e2"/>
<path d="M33.1398 30.2411H24.8558V21.4691H33.1398C33.7158 21.4691 34.2861 21.5825 34.8183 21.803C35.3504 22.0234 35.8339 22.3464 36.2412 22.7537C36.6485 23.161 36.9715 23.6445 37.1919 24.1766C37.4124 24.7088 37.5258 25.2791 37.5258 25.8551C37.5258 26.4311 37.4124 27.0014 37.1919 27.5335C36.9715 28.0657 36.6485 28.5492 36.2412 28.9565C35.8339 29.3637 35.3504 29.6868 34.8183 29.9072C34.2861 30.1276 33.7158 30.2411 33.1398 30.2411ZM33.1398 15.6211H19.0078V44.8611H24.8558V36.0891H33.1398C38.7918 36.0891 43.3738 31.5071 43.3738 25.8551C43.3738 20.2031 38.7918 15.6211 33.1398 15.6211Z" fill="white"/>
<path d="M91.9386 24.747C91.9386 22.4671 90.1835 21.0855 87.9029 21.0855H81.7895V28.366H87.9043C90.1849 28.366 91.9386 26.9844 91.9386 24.747ZM76 43.6212V16H88.7165C94.6296 16 97.8475 19.9874 97.8475 24.747C97.8475 29.4656 94.5884 33.4515 88.7165 33.4515H81.7895V43.6212H76ZM101.372 43.6212V23.4845H106.545V26.1286C107.972 24.4197 110.379 22.9971 112.826 22.9971V28.0401C112.457 27.9593 112.01 27.9197 111.399 27.9197C109.686 27.9197 107.402 28.8945 106.545 30.1585V43.6212H101.372ZM130.242 33.2886C130.242 30.2378 128.444 27.5937 125.183 27.5937C121.961 27.5937 120.171 30.2378 120.171 33.29C120.171 36.3804 121.961 39.0245 125.183 39.0245C128.444 39.0245 130.242 36.3804 130.242 33.2886ZM114.787 33.2886C114.787 27.717 118.701 22.9971 125.183 22.9971C131.707 22.9971 135.621 27.7156 135.621 33.2886C135.621 38.8616 131.707 43.6212 125.183 43.6212C118.701 43.6212 114.787 38.8616 114.787 33.2886ZM153.042 36.7871V29.8312C152.186 28.5275 150.311 27.5937 148.597 27.5937C145.624 27.5937 143.584 29.9119 143.584 33.29C143.584 36.7049 145.624 39.0245 148.597 39.0245C150.311 39.0245 152.186 38.0907 153.042 36.7871ZM153.042 43.6212V40.6116C151.491 42.5627 149.374 43.6212 146.967 43.6212C142.035 43.6212 138.244 39.8804 138.244 33.2886C138.244 26.9037 141.954 22.9971 146.967 22.9971C149.29 22.9971 151.491 23.9748 153.042 26.0067V16H158.259V43.6212H153.042ZM176.7 43.6212V40.6512C175.357 42.1164 172.992 43.6212 169.77 43.6212C165.45 43.6212 163.413 41.262 163.413 37.4375V23.4845H168.587V35.4041C168.587 38.1304 170.014 39.0245 172.215 39.0245C174.212 39.0245 175.804 37.9264 176.7 36.7857V23.4845H181.877V43.6212H176.7ZM185.766 33.2886C185.766 27.2693 190.168 22.9971 196.203 22.9971C200.239 22.9971 202.684 24.747 203.989 26.5367L200.604 29.7079C199.668 28.3249 198.241 27.5937 196.447 27.5937C193.307 27.5937 191.108 29.8723 191.108 33.29C191.108 36.7049 193.307 39.0245 196.447 39.0245C198.241 39.0245 199.668 38.2112 200.604 36.8679L203.989 40.0419C202.684 41.8316 200.239 43.6212 196.203 43.6212C190.168 43.6212 185.766 39.3504 185.766 33.2886ZM208.441 38.2112V28.0004H205.18V23.4845H208.441V18.1141H213.62V23.4845H217.612V28.0004H213.62V36.8282C213.62 38.0893 214.269 39.0245 215.412 39.0245C216.184 39.0245 216.923 38.7397 217.204 38.4152L218.307 42.3587C217.533 43.053 216.146 43.6212 213.985 43.6212C210.357 43.6212 208.441 41.7508 208.441 38.2112ZM250.775 43.6212V31.7016H237.932V43.6212H232.147V16H237.932V26.6571H250.775V16.0014H256.605V43.6212H250.775ZM275.132 43.6212V40.6512C273.787 42.1164 271.423 43.6212 268.202 43.6212C263.881 43.6212 261.843 41.262 261.843 37.4375V23.4845H267.018V35.4041C267.018 38.1304 268.445 39.0245 270.648 39.0245C272.644 39.0245 274.236 37.9264 275.132 36.7857V23.4845H280.31V43.6212H275.132ZM298.745 43.6212V31.2566C298.745 28.5304 297.322 27.5952 295.118 27.5952C293.08 27.5952 291.532 28.7344 290.633 29.8737V43.6226H285.459V23.4845H290.633V26.0067C291.899 24.543 294.344 22.9971 297.523 22.9971C301.886 22.9971 303.965 25.4371 303.965 29.2601V43.6212H298.746H298.745ZM310.133 38.2112V28.0004H306.876V23.4845H310.135V18.1141H315.314V23.4845H319.307V28.0004H315.314V36.8282C315.314 38.0893 315.964 39.0245 317.106 39.0245C317.88 39.0245 318.617 38.7397 318.901 38.4152L320 42.3587C319.227 43.053 317.839 43.6212 315.679 43.6212C312.051 43.6212 310.133 41.7508 310.133 38.2112Z" fill="#2d76e2"/>
</g>
<defs>
<clipPath id="clip0_8570_347">
<rect width="320" height="59" fill="white"/>
</clipPath>
</defs>
</svg>
